# xmcd CD database file
#
# Track frame offsets:
#	150
#	36753
#	83929
#	110551
#
# Disc length: 2012 seconds
#
# Revision: 0
# Processed by: cddbd v1.5.2PL0 Copyright (c) Steve Scherf et al.
# Submitted via: CDex 1.70beta3
#
DISCID=2b07da04
DTITLE=James Blood Ulmer with the Thing - Baby Talk
DYEAR=2015
DGENRE=Jazz
TTITLE0=Interview
TTITLE1=High Yellow
TTITLE2=Baby Talk
TTITLE3=Proof
EXTD=YEAR: 2015
EXTT0=
EXTT1=
EXTT2=
EXTT3=
PLAYORDER=
